<svg version="1.1" id="Layer_1" xmlns="http://www.w3.org/2000/svg" xmlns:xlink="http://www.w3.org/1999/xlink" x="0px" y="0px"
	 width="100%" viewBox="0 0 512 512" enable-background="new 0 0 512 512" xml:space="preserve">
<path fill="#000000" opacity="1.000000" stroke="none" 
	d="
M475.000000,513.000000 
	C329.979095,513.000000 184.958206,513.000000 39.238159,512.803589 
	C24.601061,508.483582 13.824610,500.384918 6.409894,487.728180 
	C4.029663,483.665192 3.438365,478.964264 1.000000,475.000000 
	C1.000000,466.645782 1.000000,458.291534 1.276888,449.274872 
	C2.050041,447.576904 2.632435,446.573242 3.029475,445.500977 
	C7.947887,432.217712 16.887342,422.665985 29.653387,416.605682 
	C37.482464,412.889038 45.883808,411.847107 54.354576,411.679657 
	C67.345207,411.422852 80.344597,411.618286 93.340248,411.603485 
	C100.543869,411.595276 100.629173,411.519226 100.630608,404.353180 
	C100.638947,362.700378 100.758217,321.046997 100.558052,279.395172 
	C100.498260,266.953369 103.249969,255.330612 108.839668,244.383636 
	C110.632812,240.871902 110.356705,238.308777 108.045097,235.343079 
	C96.618637,220.683319 85.453316,205.816666 73.840065,191.307800 
	C70.135963,186.680115 67.116966,182.106674 59.455265,180.755249 
	C31.378826,175.802856 12.275555,159.326126 3.301367,131.796661 
	C2.764658,130.150253 2.924152,128.031723 1.000000,127.000000 
	C1.000000,116.645775 1.000000,106.291542 1.273685,95.259850 
	C4.322725,87.870636 6.023697,80.739571 10.074245,74.525757 
	C24.116095,52.984592 43.365826,41.044456 69.581238,40.445381 
	C78.552406,40.240372 87.171608,42.556175 96.246170,41.881279 
	C112.636490,40.662300 129.136200,42.001869 145.605530,40.763493 
	C160.344650,39.655220 175.157349,40.921268 189.979782,39.834896 
	C206.536392,38.621426 223.201797,39.485851 239.839233,38.829048 
	C267.592621,37.733410 295.397858,37.950577 323.181274,37.615074 
	C323.514404,37.611050 323.848022,37.617592 324.180634,37.602367 
	C330.890839,37.295181 336.937805,35.936081 339.911255,28.789751 
	C340.583405,27.174236 342.102081,25.893303 343.297302,24.515797 
	C354.158447,11.998217 367.912231,4.476599 384.000000,1.000000 
	C393.020905,1.000000 402.041779,1.000000 411.806885,1.212655 
	C413.622253,1.830059 414.669800,2.319386 415.768188,2.627016 
	C436.123505,8.328057 451.542725,20.598335 460.555481,39.485573 
	C474.872345,69.488205 467.852142,105.916969 440.386139,126.937370 
	C438.215820,128.598373 437.302734,130.645065 437.347748,133.387436 
	C437.457062,140.050629 437.371765,146.716919 437.380005,153.381927 
	C437.388916,160.580780 437.426422,160.943298 444.650970,160.525375 
	C451.693146,160.118011 455.856689,163.280518 458.772736,169.292679 
	C464.076385,180.227371 469.713165,191.000595 475.006805,201.939987 
	C479.260223,210.729828 478.452393,214.650482 471.621521,221.477844 
	C469.853760,223.244705 468.083160,225.008682 466.315857,226.776031 
	C455.830109,237.262253 445.287323,247.692368 434.891602,258.267090 
	C431.353394,261.866211 427.051880,262.025940 422.845917,260.985901 
	C418.836365,259.994446 416.748199,256.596497 416.165710,252.500015 
	C415.465302,247.574463 417.929077,243.923401 421.188354,240.662491 
	C430.729126,231.117050 440.222443,221.522400 449.885437,212.102051 
	C452.465271,209.586990 452.841614,207.433945 451.096680,204.241623 
	C447.745819,198.111237 444.705261,191.804153 441.726654,185.480545 
	C440.347351,182.552277 438.446625,181.335297 435.133453,181.348801 
	C409.806763,181.452103 384.479279,181.445877 359.152557,181.343781 
	C355.670502,181.329742 353.618317,182.622467 352.160400,185.741150 
	C349.341553,191.771042 346.436218,197.777328 343.200500,203.589493 
	C341.125519,207.316650 341.783112,209.741547 344.818787,212.663528 
	C354.539520,222.020142 364.000397,231.649338 373.464539,241.268784 
	C377.614532,245.486893 378.689667,251.432617 376.450256,255.898041 
	C374.253235,260.278900 370.197571,262.063782 364.146820,261.334045 
	C360.947357,260.948212 358.761444,258.875793 356.642822,256.763916 
	C344.960205,245.118347 333.277252,233.472763 321.658813,221.763275 
	C315.612671,215.669754 314.778656,210.566147 318.575928,202.810577 
	C323.773773,192.194321 329.410736,181.781601 334.275299,171.017639 
	C337.597992,163.665421 341.963562,159.162109 350.644073,160.570068 
	C354.251221,161.155136 355.720886,159.201157 355.655945,155.586243 
	C355.524231,148.257111 355.648193,140.923737 355.610321,133.592407 
	C355.581177,127.955086 347.076965,119.180206 341.425659,119.497307 
	C334.321594,119.895943 327.240417,120.821205 320.170868,121.693489 
	C302.590881,123.862602 285.032379,126.207596 267.447754,128.337387 
	C249.524734,130.508163 231.574188,132.451019 213.647873,134.595444 
	C195.230179,136.798645 176.796188,138.909897 158.440735,141.556580 
	C154.140121,142.176682 149.284576,141.208496 144.800613,144.195526 
	C152.131638,151.874695 159.257080,158.785217 166.623688,165.521332 
	C178.407776,176.296829 189.609589,187.707535 201.127075,198.777344 
	C203.877930,201.421280 206.751938,204.096207 210.333008,205.527298 
	C222.425934,210.359940 232.749207,217.597351 241.512772,227.237518 
	C253.846680,240.805176 261.070099,256.684418 261.244080,274.948242 
	C261.656738,318.267059 261.373718,361.592438 261.382782,404.915161 
	C261.384155,411.391663 261.608948,411.610626 268.198120,411.613098 
	C291.192474,411.621643 314.186859,411.616791 337.181213,411.605743 
	C345.615967,411.601685 345.620850,411.587402 345.622162,402.994690 
	C345.626709,373.335297 345.591583,343.675812 345.650848,314.016510 
	C345.669403,304.722229 349.877991,299.761444 358.522217,299.700134 
	C385.180756,299.511078 411.843353,299.481903 438.500336,299.766327 
	C445.557404,299.841583 450.610229,302.966919 450.505249,312.199554 
	C450.151001,343.354523 450.427948,374.516235 450.316132,405.674866 
	C450.301117,409.864532 451.508301,412.054993 455.988281,411.612213 
	C461.334076,411.083893 466.656128,411.878601 471.846405,412.786682 
	C479.397552,414.107819 486.467865,416.901520 492.793579,421.524261 
	C503.329376,429.223724 509.730927,439.543579 513.000000,452.000000 
	C513.000000,459.020966 513.000000,466.041901 512.956299,473.889923 
	C509.471527,486.440277 503.260132,496.241211 493.459747,503.776886 
	C487.859161,508.083313 481.364777,510.354492 475.000000,513.000000 
M273.500183,433.387512 
	C205.513046,433.387115 137.525909,433.368286 69.538803,433.414337 
	C62.572697,433.419067 55.636684,433.401733 48.641254,434.243500 
	C32.861076,436.142395 21.637341,448.916595 22.392260,465.079742 
	C23.058983,479.354614 36.494190,491.608185 51.588131,491.609558 
	C188.562149,491.622131 325.536163,491.622864 462.510162,491.614197 
	C476.576630,491.613312 487.779602,482.522980 491.085968,468.532501 
	C493.947388,456.424774 487.532043,443.563599 475.776306,437.408417 
	C469.676727,434.214752 463.093506,433.458130 456.465637,433.447784 
	C395.810638,433.352997 335.155396,433.389404 273.500183,433.387512 
M199.263840,114.574844 
	C209.604599,113.256599 219.938904,111.884789 230.287827,110.634048 
	C242.444427,109.164833 254.618744,107.842201 266.776184,106.379738 
	C279.584930,104.838936 292.386536,103.236763 305.184235,101.606483 
	C313.643372,100.528885 322.090179,99.354469 331.022278,98.159195 
	C326.911987,86.828613 325.558594,75.774117 326.613312,64.439369 
	C326.992645,60.362831 324.767670,59.233456 321.119293,59.369743 
	C306.836487,59.903286 292.563080,59.145988 278.239624,60.146034 
	C261.178986,61.337193 243.996216,60.876747 226.878540,61.109623 
	C199.596451,61.480782 172.332352,62.907692 145.031403,62.610203 
	C138.906403,62.543461 132.603302,63.198471 126.377426,63.647335 
	C126.418655,66.340591 127.567459,67.767220 128.615341,69.231842 
	C133.789032,76.463142 137.642700,84.295410 139.685883,92.997131 
	C141.395874,100.279778 142.204498,107.615089 141.400131,115.079575 
	C140.983444,118.946404 141.458008,121.650566 146.568497,120.708397 
	C151.277969,119.840172 156.091949,119.539963 160.859238,118.983955 
	C173.359512,117.526039 185.859421,116.065048 199.263840,114.574844 
M135.526566,411.617432 
	C168.329407,411.612061 201.132263,411.613739 233.935104,411.595184 
	C240.381210,411.591553 240.617889,411.344543 240.621017,404.758942 
	C240.631073,383.611938 240.628235,362.464935 240.585327,341.318024 
	C240.582443,339.900360 241.107513,338.346741 240.195343,337.253326 
	C201.457123,370.128662 162.422821,370.216583 122.918152,338.756317 
	C121.973038,340.643463 122.400391,342.500977 122.396774,344.288971 
	C122.359688,362.605225 122.323219,380.921692 122.384354,399.237793 
	C122.430283,412.996063 120.698181,411.520264 135.526566,411.617432 
M170.453018,223.230225 
	C140.832016,228.084854 118.329269,256.436127 122.653831,288.840179 
	C126.849342,320.277283 155.467453,343.767609 188.683426,339.329041 
	C222.417450,334.821228 246.913406,302.137299 237.901917,266.703369 
	C230.336761,236.956619 201.407455,217.913345 170.453018,223.230225 
M412.492920,321.378540 
	C399.502014,321.378571 386.509094,321.509003 373.521362,321.306396 
	C369.099915,321.237427 367.265839,322.518341 367.296173,327.243652 
	C367.463959,353.390930 367.463104,379.540344 367.297974,405.687622 
	C367.268524,410.352386 368.981537,411.743195 373.460205,411.691132 
	C389.779938,411.501434 406.105164,411.462616 422.423767,411.691345 
	C427.311035,411.759857 428.750244,410.017334 428.711975,405.268219 
	C428.526825,382.285828 428.632935,359.301117 428.634583,336.317230 
	C428.635651,321.394928 428.634705,321.394928 412.492920,321.378540 
M436.642059,42.839207 
	C423.524506,25.652651 406.054993,18.678711 385.235504,23.722511 
	C365.904083,28.405819 353.285217,41.577576 349.194733,61.150173 
	C345.144470,80.530197 352.273254,100.824066 372.957001,113.352097 
	C393.490448,125.789055 422.975830,119.319366 436.397339,99.406097 
	C448.915771,80.832703 448.981812,62.213562 436.642059,42.839207 
M115.440163,90.990822 
	C105.284035,67.489807 77.883392,57.071285 55.546997,64.783241 
	C21.642822,76.489128 11.137793,118.955246 36.027229,144.774948 
	C53.887684,163.302948 82.764542,164.769531 102.435211,148.147644 
	C119.112137,134.055527 124.694138,110.332138 115.440163,90.990822 
M162.032288,202.256607 
	C164.201248,200.926575 167.429611,202.596420 169.257523,199.949768 
	C159.592361,188.569031 148.029877,179.489258 137.788712,169.062668 
	C134.767166,165.986420 131.596085,163.078049 128.309311,160.258194 
	C125.299828,157.676239 123.568375,158.332901 121.319092,160.829208 
	C116.596252,166.070724 110.908577,170.073822 104.631882,173.247742 
	C100.866165,175.151932 97.067787,176.991531 92.709480,179.143936 
	C103.263115,192.778793 113.477264,205.998581 123.724190,219.192932 
	C125.672966,221.702255 127.243134,220.253983 129.082626,218.749390 
	C138.596725,210.967560 149.244507,205.362686 162.032288,202.256607 
M387.569092,160.630035 
	C395.235535,160.626801 402.903381,160.535995 410.567810,160.658920 
	C414.163086,160.716599 415.791901,159.327530 415.650208,155.649979 
	C415.496307,151.655884 415.522583,147.649292 415.630524,143.652481 
	C415.710571,140.687790 414.453796,139.910645 411.638733,140.367508 
	C401.564850,142.002441 391.453400,142.189102 381.427490,140.115341 
	C378.332794,139.475235 377.419006,140.621933 377.401031,143.325226 
	C377.375519,147.158279 377.571625,151.003387 377.329834,154.821609 
	C377.056915,159.131180 378.719147,161.102615 383.102814,160.644043 
	C384.256683,160.523361 385.434143,160.628479 387.569092,160.630035 
z"/>
<path fill="#000000" opacity="1.000000" stroke="none" 
	d="
M326.369904,457.188049 
	C329.033508,467.308197 325.357819,473.254181 316.984558,473.403748 
	C312.063843,473.491638 308.380829,471.302063 306.909973,466.929626 
	C305.407623,462.463531 305.642639,457.774048 310.088440,454.455841 
	C314.144287,451.428619 318.912323,451.082977 322.929108,453.808807 
	C324.128906,454.622986 325.066132,455.824097 326.369904,457.188049 
z"/>
<path fill="#000000" opacity="1.000000" stroke="none" 
	d="
M189.293686,473.343994 
	C181.959717,471.176361 178.760117,465.278656 180.879471,458.613373 
	C182.323959,454.070526 188.410141,451.091766 193.484375,452.444122 
	C200.021301,454.186340 202.966385,459.326080 201.341980,466.157074 
	C200.261047,470.702606 196.113388,473.272278 189.293686,473.343994 
z"/>
<path fill="#000000" opacity="1.000000" stroke="none" 
	d="
M120.651047,463.766937 
	C120.725037,456.385345 124.633972,451.954742 130.834198,451.784424 
	C136.201309,451.636993 141.430588,456.460022 141.857819,461.951630 
	C142.266129,467.200043 138.340546,472.497925 133.461456,473.283264 
	C126.380524,474.423035 122.085251,471.375458 120.651047,463.766937 
z"/>
<path fill="#000000" opacity="1.000000" stroke="none" 
	d="
M371.081482,453.768616 
	C377.621246,451.214844 382.021484,451.864258 385.278809,455.752655 
	C388.417755,459.499756 388.105408,463.826935 386.368530,467.872498 
	C384.332092,472.615753 380.117401,473.843170 375.231628,473.352966 
	C371.181000,472.946533 368.398071,470.580231 366.906342,467.142151 
	C364.867188,462.442444 366.552979,457.547607 371.081482,453.768616 
z"/>
<path fill="#000000" opacity="1.000000" stroke="none" 
	d="
M429.782349,466.784790 
	C428.187164,460.587555 430.078949,455.700012 434.780762,453.268829 
	C439.342773,450.909912 445.204041,452.018463 448.330688,455.831543 
	C451.496826,459.692780 451.136444,466.859589 447.590454,470.552307 
	C444.144745,474.140594 437.511627,474.513916 433.401489,471.296692 
	C431.960449,470.168701 430.576660,468.948273 429.782349,466.784790 
z"/>
<path fill="#000000" opacity="1.000000" stroke="none" 
	d="
M81.026199,458.376770 
	C83.257385,467.090637 79.220596,473.184418 71.504677,473.354797 
	C66.124985,473.473541 62.138859,470.809143 60.891869,466.261017 
	C59.365196,460.692749 61.149677,455.850739 65.634621,453.391815 
	C70.054871,450.968445 75.786903,451.863373 79.173347,455.565613 
	C79.836609,456.290741 80.307899,457.191467 81.026199,458.376770 
z"/>
<path fill="#000000" opacity="1.000000" stroke="none" 
	d="
M252.690247,463.657715 
	C254.442520,461.595825 255.824738,462.411469 256.891449,463.893738 
	C258.495789,466.123016 258.304657,468.725159 257.147491,470.922974 
	C256.099976,472.912506 254.108002,473.851685 251.420303,472.443878 
	C252.443604,469.722321 252.941360,466.889557 252.690247,463.657715 
z"/>
<path fill="#000000" opacity="1.000000" stroke="none" 
	d="
M202.571625,246.249176 
	C225.067505,259.706451 227.669571,291.004517 210.770889,309.140808 
	C203.728821,316.698608 194.699127,320.985260 183.894775,321.499878 
	C172.315735,322.051422 162.144684,319.096924 153.647064,311.309998 
	C145.940308,304.247833 141.314346,295.542206 140.578186,284.827545 
	C139.802383,273.535583 142.432343,263.412201 149.632629,254.615250 
	C156.246811,246.534332 164.902435,242.037323 175.170120,240.658218 
	C184.784134,239.366913 193.908646,240.829498 202.571625,246.249176 
M169.114655,295.415314 
	C169.676468,295.770477 170.240112,296.122803 170.799835,296.481232 
	C178.581955,301.464661 188.526459,300.413452 194.556122,293.969177 
	C200.754517,287.344574 201.466156,276.936951 196.221848,269.608032 
	C191.388245,262.853058 180.717346,260.342407 172.856277,264.110596 
	C160.733200,269.921753 158.745773,284.063293 169.114655,295.415314 
z"/>
<path fill="#000000" opacity="1.000000" stroke="none" 
	d="
M371.352570,88.470993 
	C363.585815,74.947693 364.151276,62.116459 373.880524,50.326721 
	C378.635376,44.564861 385.078613,41.077351 392.857544,40.617828 
	C401.547485,40.104492 409.664368,41.080544 416.703735,47.079887 
	C421.994232,51.588776 425.586151,57.003448 426.848389,63.685860 
	C430.136017,81.090546 422.673553,95.741272 405.956787,100.363693 
	C393.673401,103.760223 381.565399,102.115288 371.352570,88.470993 
M404.178284,66.413101 
	C401.847290,62.987217 398.558167,61.572483 394.660736,62.795792 
	C391.367950,63.829319 388.879852,66.071617 388.417175,69.841438 
	C387.902252,74.037109 389.928223,76.985023 393.426331,78.789398 
	C396.437103,80.342377 399.597443,80.144089 402.229431,77.706497 
	C405.451202,74.722626 406.834045,71.250542 404.178284,66.413101 
z"/>
<path fill="#000000" opacity="1.000000" stroke="none" 
	d="
M42.441406,123.062317 
	C39.085285,111.054939 39.406078,99.896141 47.798222,90.357201 
	C52.747719,84.731339 59.014397,81.065186 66.775497,80.637184 
	C75.053856,80.180649 82.755058,81.052391 89.863091,86.378723 
	C102.905655,96.152023 105.200348,115.732582 96.510902,128.669235 
	C83.934151,147.393219 52.012249,146.032181 42.441406,123.062317 
M69.173340,102.623207 
	C62.701805,105.628403 60.569839,110.264130 63.425884,115.120438 
	C65.584236,118.790413 69.961357,120.578476 73.676308,119.307747 
	C77.337479,118.055428 80.214333,113.157013 79.539825,109.324005 
	C78.816040,105.210915 75.251709,102.687057 69.173340,102.623207 
z"/>
</svg>