<svg version="1.1" id="Layer_1" xmlns="http://www.w3.org/2000/svg" xmlns:xlink="http://www.w3.org/1999/xlink" x="0px" y="0px"
	 width="100%" viewBox="0 0 336 336" enable-background="new 0 0 336 336" xml:space="preserve">
<path fill="#000000" opacity="1.000000" stroke="none" 
	d="
M247.593231,221.307266 
	C243.131973,225.943207 237.476837,227.071533 231.954300,228.134354 
	C204.257858,233.464539 176.296509,233.040710 148.309692,231.590515 
	C137.824722,231.047211 127.414665,229.867996 117.176643,227.404526 
	C113.743698,226.578476 110.447762,225.440994 107.488716,223.524551 
	C101.719139,219.787811 101.693344,213.436646 107.567368,209.794006 
	C113.806229,205.925110 121.047501,205.193863 128.062424,203.827087 
	C128.823120,203.678879 129.600296,203.615250 130.352692,203.176727 
	C116.489281,201.997070 102.616180,202.501221 88.756012,202.432617 
	C74.795815,202.363525 69.747345,197.422729 69.742867,183.526947 
	C69.732201,150.361603 69.737556,117.196266 69.741272,84.030930 
	C69.742531,72.729210 75.636871,66.768456 87.012627,66.763603 
	C146.510498,66.738235 206.008377,66.738983 265.506256,66.762550 
	C277.338074,66.767235 283.132294,73.761696 282.782379,85.533150 
	C282.268097,102.832077 282.605164,120.157089 282.627014,137.470932 
	C282.647614,153.785217 283.084045,170.108582 282.662994,186.410522 
	C282.370453,197.736877 276.852997,202.378738 265.465607,202.400803 
	C249.999924,202.430786 234.534149,202.408264 218.999466,202.988602 
	C223.967545,203.890823 228.937134,204.784897 233.903229,205.697968 
	C237.704208,206.396835 241.335464,207.619812 244.640457,209.628555 
	C249.387939,212.514038 250.255447,215.759201 247.593231,221.307266 
M271.682678,185.067032 
	C271.681305,152.079865 271.682648,119.092697 271.676514,86.105530 
	C271.675110,78.611809 271.134766,78.062996 263.818604,78.063736 
	C205.507889,78.069595 147.197174,78.077888 88.886452,78.088058 
	C81.649109,78.089317 81.086746,78.551201 81.082916,85.637764 
	C81.065155,118.458328 81.088516,151.278931 81.131065,184.099472 
	C81.140312,191.230804 81.643707,191.674759 88.919609,191.675751 
	C131.236908,191.681564 173.554214,191.679703 215.871521,191.678009 
	C232.198654,191.677368 248.525940,191.632401 264.852844,191.693192 
	C268.884735,191.708191 271.848816,190.783066 271.682678,185.067032 
M207.951141,220.394608 
	C215.369644,219.143707 223.072159,219.593689 230.255096,216.451294 
	C219.344559,215.814606 208.593033,209.389420 197.547684,216.010101 
	C196.901581,216.397400 195.907974,216.376221 195.100281,216.297333 
	C179.612244,214.784576 163.757599,219.658508 148.492599,213.336578 
	C144.705627,211.768234 126.384361,215.029953 121.369942,217.373108 
	C150.269547,222.026199 178.598969,222.530655 207.951141,220.394608 
z"/>
<path fill="#000000" opacity="1.000000" stroke="none" 
	d="
M256.000000,298.207855 
	C188.679031,298.213684 121.858070,298.221344 55.037117,298.219513 
	C53.039810,298.219482 51.000412,298.359741 49.053669,298.018250 
	C44.540131,297.226501 42.464558,293.234894 45.001556,289.475769 
	C55.625145,273.734650 66.468414,258.141602 77.268318,242.519943 
	C79.377518,239.469040 82.661880,239.686493 85.862160,239.687485 
	C129.854034,239.701065 173.845917,239.694519 217.837799,239.694946 
	C235.001297,239.695129 252.165863,239.806183 269.327515,239.629883 
	C273.680817,239.585175 276.433075,241.180786 278.737091,244.796295 
	C287.690216,258.845825 296.834625,272.773712 305.949249,286.719788 
	C307.737305,289.455688 309.456329,292.224976 307.541687,295.473053 
	C305.727173,298.551300 302.494659,298.248779 299.491241,298.247131 
	C285.160828,298.239227 270.830414,298.222137 256.000000,298.207855 
M248.499725,286.876770 
	C262.865387,286.876770 277.231018,286.876770 292.919617,286.876770 
	C284.861633,274.467407 277.647583,263.316193 270.375916,252.202667 
	C269.241486,250.468872 267.335144,250.315964 265.444122,250.432251 
	C250.814255,251.331757 236.166107,250.961258 221.527649,250.961792 
	C177.446426,250.963379 133.362717,251.312927 89.286156,250.380234 
	C86.304581,250.317154 84.313248,251.282257 82.643585,253.784637 
	C77.376656,261.678375 71.930405,269.452545 66.544449,277.266724 
	C64.596962,280.092224 62.389622,282.764252 60.695148,286.892365 
	C123.432129,286.892365 185.465973,286.892365 248.499725,286.876770 
z"/>
<path fill="#000000" opacity="1.000000" stroke="none" 
	d="
M86.432846,137.458008 
	C85.655022,130.004608 86.428352,123.028748 86.516144,116.044930 
	C86.618591,107.895226 86.053322,99.735161 86.223564,91.588898 
	C86.365654,84.789467 88.266968,83.056786 95.109711,83.049225 
	C149.234863,82.989464 203.360138,82.984024 257.485291,83.034081 
	C264.577148,83.040634 266.303101,84.948296 266.306305,92.013733 
	C266.319031,119.992554 266.314575,147.971405 266.289246,175.950226 
	C266.282532,183.368759 264.588745,185.124725 257.195526,185.127167 
	C203.069931,185.145111 148.944321,185.135635 94.818741,185.099915 
	C88.176918,185.095535 86.197838,183.200439 86.181793,176.369797 
	C86.151688,163.553879 86.368896,150.737381 86.432846,137.458008 
M110.515305,94.274658 
	C108.183609,94.272255 105.826935,94.486809 103.525444,94.221954 
	C98.837135,93.682411 97.159622,95.305374 97.213905,100.267662 
	C97.461700,122.918068 97.432304,145.573624 97.234253,168.224960 
	C97.195213,172.690018 98.664017,173.860260 102.979111,173.848434 
	C151.449371,173.715683 199.920135,173.764282 248.390762,173.754349 
	C254.953735,173.753006 255.010559,173.725189 255.023499,167.036285 
	C255.066360,144.883194 254.888138,122.727371 255.218201,100.578903 
	C255.293976,95.495636 254.041779,94.123215 248.926712,94.145813 
	C203.121689,94.348198 157.315445,94.270103 110.515305,94.274658 
z"/>
<path fill="#000000" opacity="1.000000" stroke="none" 
	d="
M170.000031,285.262909 
	C164.345169,285.255646 159.190125,285.258911 154.035156,285.242554 
	C151.956512,285.235962 149.849899,285.181549 149.895859,282.258575 
	C149.937988,279.579346 150.960571,277.787598 154.012482,277.808960 
	C159.311722,277.846069 164.611389,277.819275 170.089066,277.819275 
	C170.171829,275.001556 168.264557,271.569122 171.098602,270.325500 
	C174.546341,268.812531 178.603043,269.252533 182.365417,270.068939 
	C183.655457,270.348877 183.915482,271.834412 183.943375,272.948792 
	C184.045288,277.022156 186.512436,277.856720 189.948898,277.749329 
	C192.937973,277.655884 195.933563,277.785187 198.926300,277.789825 
	C201.970917,277.794556 202.948227,279.745148 203.074692,282.324707 
	C203.222412,285.338043 200.939224,285.240356 198.935471,285.247498 
	C189.457031,285.281189 179.978439,285.264374 170.000031,285.262909 
z"/>
<path fill="#000000" opacity="1.000000" stroke="none" 
	d="
M135.904358,276.984924 
	C133.619492,276.628235 132.341080,275.755981 132.932877,273.598877 
	C133.468857,271.645203 134.139435,269.700378 136.756012,269.747406 
	C140.047882,269.806610 143.364929,269.247406 147.148682,270.157074 
	C147.279617,274.832611 145.306824,279.167664 144.767105,283.693542 
	C144.596313,285.125732 142.799286,285.248596 141.427689,285.251617 
	C139.267532,285.256409 137.102570,285.338715 134.948639,285.222046 
	C133.120743,285.123047 130.512344,285.920685 130.628204,282.683777 
	C130.726837,279.928162 131.855667,277.830231 135.091537,277.816284 
	C136.579788,277.809875 138.068054,277.815186 139.802643,277.815186 
	C138.633545,276.523834 137.348679,277.384430 135.904358,276.984924 
z"/>
<path fill="#000000" opacity="1.000000" stroke="none" 
	d="
M241.537994,282.391571 
	C241.784744,284.594147 240.595276,285.092560 239.164139,285.123596 
	C236.200226,285.187897 233.229111,285.237213 230.269638,285.102203 
	C227.215714,284.962891 226.574112,282.571777 226.502380,280.200989 
	C226.416824,277.374023 228.841858,277.640961 230.457367,277.956024 
	C234.307159,278.706848 239.886841,275.037048 241.537994,282.391571 
z"/>
<path fill="#000000" opacity="1.000000" stroke="none" 
	d="
M114.678818,278.032745 
	C117.587234,277.908783 120.075645,277.791992 122.556648,277.881226 
	C124.243172,277.941895 126.683037,277.353180 126.559746,280.191803 
	C126.467079,282.325470 125.895447,284.833252 123.191017,285.027527 
	C119.290459,285.307770 115.310257,285.836456 111.266075,284.513580 
	C111.256889,281.780273 111.716667,279.492004 114.678818,278.032745 
z"/>
<path fill="#000000" opacity="1.000000" stroke="none" 
	d="
M87.177567,277.972534 
	C89.832474,281.911926 87.390495,284.269836 84.336464,284.888275 
	C80.592438,285.646454 76.532387,285.825897 72.416458,284.524323 
	C73.075165,280.035919 75.088043,277.496307 79.837822,277.790527 
	C82.142357,277.933258 84.460030,277.863800 87.177567,277.972534 
z"/>
<path fill="#000000" opacity="1.000000" stroke="none" 
	d="
M279.270020,280.577393 
	C280.121826,282.063568 280.898438,283.197540 280.081604,284.589478 
	C269.770935,286.899261 266.261749,285.677826 264.495483,279.168274 
	C269.491913,276.842377 275.946625,277.320251 279.270020,280.577393 
z"/>
<path fill="#000000" opacity="1.000000" stroke="none" 
	d="
M222.178955,282.997070 
	C218.061325,286.926208 213.359268,285.438690 209.083206,284.507812 
	C206.839157,284.019287 207.706070,280.870239 207.294083,278.940094 
	C216.069092,276.099304 221.033066,277.384949 222.178955,282.997070 
z"/>
<path fill="#000000" opacity="1.000000" stroke="none" 
	d="
M99.888229,285.218872 
	C97.054543,284.935516 94.472778,285.919586 92.331497,284.217499 
	C92.538322,277.516602 94.656631,277.060822 107.353416,278.489960 
	C107.194023,284.152313 106.243347,285.064819 99.888229,285.218872 
z"/>
<path fill="#000000" opacity="1.000000" stroke="none" 
	d="
M258.126221,278.333862 
	C259.936462,280.157379 261.143280,281.867554 260.795593,284.178619 
	C251.498367,287.402039 246.298767,285.538361 245.723206,278.435547 
	C249.688828,277.540344 253.698334,277.503937 258.126221,278.333862 
z"/>
<path fill="#000000" opacity="1.000000" stroke="none" 
	d="
M92.637192,272.376556 
	C89.868484,277.399475 84.251930,278.493439 77.174194,275.605286 
	C78.339943,272.880585 79.189766,269.403107 82.883163,269.877502 
	C86.176781,270.300537 90.463417,266.983185 92.637192,272.376556 
z"/>
<path fill="#000000" opacity="1.000000" stroke="none" 
	d="
M208.689728,276.693787 
	C206.060623,275.529449 205.697205,273.456421 206.170090,271.525787 
	C206.745682,269.175903 209.059113,269.770966 210.796921,269.713623 
	C212.948898,269.642548 215.120850,269.615723 217.258865,269.826538 
	C219.856171,270.082611 220.136337,272.218536 220.329941,274.243896 
	C220.564514,276.697998 218.748810,276.870178 217.057114,276.905029 
	C214.407440,276.959625 211.754364,276.848938 208.689728,276.693787 
z"/>
<path fill="#000000" opacity="1.000000" stroke="none" 
	d="
M194.629364,269.648010 
	C196.382355,269.627380 197.699814,269.576721 199.016479,269.592621 
	C201.449524,269.622009 201.896484,271.359833 202.107376,273.271667 
	C202.331329,275.301971 201.276062,276.476044 199.393448,276.674561 
	C196.947220,276.932526 194.471161,277.004364 192.009003,276.988647 
	C189.328552,276.971558 187.693207,275.837585 187.764175,272.805023 
	C187.839203,269.598206 190.013107,269.674805 192.217316,269.647034 
	C192.875931,269.638733 193.534760,269.647217 194.629364,269.648010 
z"/>
<path fill="#000000" opacity="1.000000" stroke="none" 
	d="
M159.487335,269.626526 
	C162.175125,269.782501 165.183731,268.435608 165.349091,272.601105 
	C165.513489,276.742950 162.847443,277.039276 159.793152,276.985229 
	C158.470169,276.961792 157.128464,277.131470 155.826920,276.965424 
	C153.911316,276.721069 151.005356,277.742432 151.091934,274.275574 
	C151.167648,271.243073 152.626236,269.276672 156.085571,269.620880 
	C157.068329,269.718628 158.069290,269.633423 159.487335,269.626526 
z"/>
<path fill="#000000" opacity="1.000000" stroke="none" 
	d="
M249.163879,276.971191 
	C244.273056,277.277191 242.400970,275.028534 242.500687,270.781738 
	C250.948456,267.664795 255.818924,269.321014 257.122986,275.768433 
	C254.909225,277.906952 252.133789,276.730774 249.163879,276.971191 
z"/>
<path fill="#000000" opacity="1.000000" stroke="none" 
	d="
M114.631866,273.610046 
	C118.286850,266.525330 124.071564,270.922150 128.941772,269.656250 
	C129.486145,274.391571 127.934891,276.723083 123.699158,276.845215 
	C121.373871,276.912262 119.039871,276.915955 116.718254,276.791077 
	C115.064529,276.702087 113.689743,276.143280 114.631866,273.610046 
z"/>
<path fill="#000000" opacity="1.000000" stroke="none" 
	d="
M190.655823,260.872620 
	C193.390381,260.903717 195.721710,260.840271 198.034409,261.018341 
	C200.698273,261.223511 200.968002,263.288574 201.054642,265.374329 
	C201.145370,267.559021 199.822189,268.276794 197.909744,268.303650 
	C195.586014,268.336334 193.261749,268.333008 190.937683,268.338898 
	C189.066864,268.343658 187.617371,267.779114 187.599136,265.586029 
	C187.582108,263.539459 186.748047,260.976624 190.655823,260.872620 
z"/>
<path fill="#000000" opacity="1.000000" stroke="none" 
	d="
M180.481567,268.357147 
	C177.883362,268.373077 175.724091,268.364471 173.564835,268.350189 
	C171.475235,268.336365 169.992844,267.621216 169.967804,265.225006 
	C169.944443,262.989136 170.638794,261.208130 173.160629,260.996704 
	C175.305344,260.816956 177.471756,260.830200 179.626968,260.863037 
	C181.342896,260.889221 183.108109,261.120697 183.304779,263.335022 
	C183.488907,265.408417 184.213394,267.864929 180.481567,268.357147 
z"/>
<path fill="#000000" opacity="1.000000" stroke="none" 
	d="
M262.288055,268.335632 
	C257.554688,268.362183 257.153748,265.126343 256.307526,262.155884 
	C264.324493,258.832733 269.288574,260.625580 271.335754,267.689514 
	C268.553467,268.975372 265.578735,268.127686 262.288055,268.335632 
z"/>
<path fill="#000000" opacity="1.000000" stroke="none" 
	d="
M241.755096,267.875397 
	C239.872620,266.217926 239.365265,264.354614 239.236618,262.351624 
	C246.814636,258.553833 252.235916,260.553558 253.338638,267.706055 
	C249.647522,268.889038 245.893921,268.359619 241.755096,267.875397 
z"/>
<path fill="#000000" opacity="1.000000" stroke="none" 
	d="
M267.224976,276.601196 
	C261.781738,275.966858 261.772522,275.958313 260.599243,270.764252 
	C268.733734,267.557556 273.989929,269.301971 275.772430,275.990326 
	C273.154816,277.378265 270.330200,276.506073 267.224976,276.601196 
z"/>
<path fill="#000000" opacity="1.000000" stroke="none" 
	d="
M156.521179,260.954010 
	C158.770920,260.898712 160.591049,260.858368 162.410416,260.880249 
	C164.665787,260.907379 166.287476,261.615204 166.181320,264.321442 
	C166.080902,266.881592 165.016724,268.383331 162.283188,268.358063 
	C160.628815,268.342773 158.963318,268.490662 157.322403,268.344879 
	C155.665085,268.197693 153.245544,269.178680 152.787460,266.615631 
	C152.330963,264.061432 152.743073,261.541016 156.521179,260.954010 
z"/>
<path fill="#000000" opacity="1.000000" stroke="none" 
	d="
M118.968033,262.749847 
	C123.134712,259.686646 127.320572,261.135956 131.420975,261.242676 
	C131.980133,268.023438 130.730484,269.542206 118.216309,267.731903 
	C117.091202,266.043335 118.257439,264.608978 118.968033,262.749847 
z"/>
<path fill="#000000" opacity="1.000000" stroke="none" 
	d="
M93.346313,268.140198 
	C89.531883,268.208801 86.083862,268.964294 82.761017,267.677185 
	C84.145340,260.869843 87.841507,259.349243 97.197609,261.702820 
	C97.320000,264.489319 96.363838,266.681366 93.346313,268.140198 
z"/>
<path fill="#000000" opacity="1.000000" stroke="none" 
	d="
M222.032349,263.808533 
	C224.574646,258.704346 228.900238,261.063507 232.358536,261.285706 
	C235.465210,261.485260 235.846039,264.615234 235.880966,267.309570 
	C228.293091,269.764282 223.761078,268.714691 222.032349,263.808533 
z"/>
<path fill="#000000" opacity="1.000000" stroke="none" 
	d="
M96.586205,273.215424 
	C100.383461,266.738831 105.894646,270.911438 110.568466,269.759491 
	C110.473679,276.304810 109.297417,277.357208 103.604500,276.748749 
	C101.794342,276.555298 99.967522,276.488312 98.146240,276.435944 
	C95.997131,276.374146 95.532753,275.389893 96.586205,273.215424 
z"/>
<path fill="#000000" opacity="1.000000" stroke="none" 
	d="
M138.308456,268.358673 
	C136.315216,268.200562 134.662582,268.014648 135.122238,265.859680 
	C135.523163,263.980103 135.725723,261.670898 138.198761,261.294098 
	C140.462006,260.949280 142.787521,260.901062 145.083801,260.921844 
	C146.838379,260.937714 149.155960,260.779602 148.931412,263.473907 
	C148.745712,265.702179 148.415253,268.277100 145.184250,268.339569 
	C143.043060,268.380951 140.900757,268.365082 138.308456,268.358673 
z"/>
<path fill="#000000" opacity="1.000000" stroke="none" 
	d="
M100.976288,264.078979 
	C104.875320,258.787933 109.675064,261.528198 114.391800,261.187561 
	C114.357300,264.456451 113.910278,267.270660 111.304832,267.921906 
	C107.855652,268.783966 104.054771,269.054077 100.634056,267.555145 
	C99.395554,267.012421 100.426544,265.495026 100.976288,264.078979 
z"/>
<path fill="#000000" opacity="1.000000" stroke="none" 
	d="
M216.524841,267.989716 
	C213.450668,268.184753 210.798843,268.323090 208.154495,268.235352 
	C205.581039,268.149994 204.960876,266.246490 204.803009,264.105255 
	C204.616104,261.570282 206.326538,261.067017 208.309082,260.974274 
	C209.965134,260.896790 211.632050,260.823761 213.283676,260.923096 
	C217.966827,261.204742 218.950699,263.104034 216.524841,267.989716 
z"/>
<path fill="#000000" opacity="1.000000" stroke="none" 
	d="
M232.769257,269.671387 
	C237.849548,269.285156 238.565323,272.307037 238.869751,276.218903 
	C235.258759,276.405640 231.855255,276.708160 228.450333,276.724945 
	C224.409088,276.744904 224.490433,273.660736 224.145844,270.631500 
	C226.788940,268.979614 229.646591,269.967438 232.769257,269.671387 
z"/>
<path fill="#000000" opacity="1.000000" stroke="none" 
	d="
M199.719513,258.752136 
	C196.393036,260.866089 193.029388,260.102539 189.763535,260.009949 
	C187.432022,259.943817 186.863449,258.246216 186.854263,256.179474 
	C186.844254,253.926682 187.871262,253.004898 190.111984,252.721863 
	C197.671555,251.766953 199.369034,252.672150 199.719513,258.752136 
z"/>
<path fill="#000000" opacity="1.000000" stroke="none" 
	d="
M154.370361,255.441620 
	C156.497238,252.839661 164.147842,251.749634 166.070007,253.384964 
	C166.902985,254.093643 167.058121,255.056488 166.995132,256.065338 
	C166.669907,261.274628 162.643890,260.064697 159.606873,260.086243 
	C156.928467,260.105255 152.951477,261.127136 154.370361,255.441620 
z"/>
<path fill="#000000" opacity="1.000000" stroke="none" 
	d="
M126.289719,252.736832 
	C127.889999,252.730286 129.052521,252.671814 130.206604,252.745499 
	C131.948212,252.856705 134.277573,252.440445 134.034027,255.258820 
	C133.851517,257.370941 133.427795,259.718079 130.569016,259.948212 
	C127.330040,260.208893 124.073677,260.425568 120.598984,259.597839 
	C121.230385,255.970139 121.388222,252.711441 126.289719,252.736832 
z"/>
<path fill="#000000" opacity="1.000000" stroke="none" 
	d="
M247.132828,253.264893 
	C248.763123,255.030487 249.730820,256.700928 249.761414,258.758301 
	C242.442963,262.392914 237.175613,260.452362 236.295837,253.574829 
	C239.696533,252.109589 243.242920,252.696030 247.132828,253.264893 
z"/>
<path fill="#000000" opacity="1.000000" stroke="none" 
	d="
M92.224472,260.075867 
	C90.353546,259.952820 88.783142,260.287567 87.679283,258.972565 
	C88.074150,253.042160 91.319656,251.319443 101.539574,253.708954 
	C101.246674,259.585999 97.407974,260.460815 92.224472,260.075867 
z"/>
<path fill="#000000" opacity="1.000000" stroke="none" 
	d="
M206.473602,259.982117 
	C202.695084,258.730042 203.769669,256.023071 203.763687,253.499878 
	C206.847153,252.095413 210.030670,252.725647 213.113007,252.812988 
	C216.081528,252.897110 216.250900,255.349350 216.342545,257.543121 
	C216.443649,259.963593 214.568085,260.023865 212.883545,260.076843 
	C210.889862,260.139526 208.891937,260.066833 206.473602,259.982117 
z"/>
<path fill="#000000" opacity="1.000000" stroke="none" 
	d="
M148.215607,259.668610 
	C145.664612,259.921661 143.509933,260.114685 141.356735,260.099548 
	C139.509918,260.086578 137.475235,260.029327 137.627899,257.307526 
	C137.756989,255.006256 138.336136,252.947357 141.179810,252.767120 
	C142.670334,252.672653 144.173035,252.629074 145.662979,252.704910 
	C147.257660,252.786087 149.438660,252.034851 150.201782,253.799240 
	C151.069855,255.806305 150.711304,258.047638 148.215607,259.668610 
z"/>
<path fill="#000000" opacity="1.000000" stroke="none" 
	d="
M111.728142,260.066345 
	C109.009384,260.007507 106.661407,260.365967 104.542686,259.197021 
	C104.053802,252.780899 108.227013,251.460876 117.848961,253.642731 
	C117.761642,257.399200 116.423325,259.966980 111.728142,260.066345 
z"/>
<path fill="#000000" opacity="1.000000" stroke="none" 
	d="
M223.496643,252.731873 
	C227.215363,253.166580 231.578171,251.061066 232.785049,256.478546 
	C233.003754,257.460297 233.453827,258.706696 232.533279,259.238770 
	C229.642426,260.909546 226.427643,260.114655 223.330475,259.994598 
	C221.308563,259.916168 220.708984,258.310608 220.150391,256.692841 
	C219.189743,253.910736 220.086182,252.566757 223.496643,252.731873 
z"/>
<path fill="#000000" opacity="1.000000" stroke="none" 
	d="
M252.867950,256.078827 
	C252.460526,254.772202 251.984879,253.756592 253.186523,253.115891 
	C258.184631,250.451050 264.844208,253.419327 266.296356,258.939850 
	C260.508209,261.499390 255.698990,260.595459 252.867950,256.078827 
z"/>
<path fill="#000000" opacity="1.000000" stroke="none" 
	d="
M172.422485,259.812561 
	C169.406113,254.432953 170.316132,252.774521 175.890991,252.690887 
	C177.701340,252.663727 179.539337,252.665405 181.319717,252.942581 
	C183.247498,253.242722 183.213882,254.934814 183.279526,256.436462 
	C183.360138,258.280457 182.854797,259.861938 180.751129,259.979065 
	C178.127411,260.125153 175.487595,259.982697 172.422485,259.812561 
z"/>
</svg>